<svg width="399" height="529" viewBox="0 0 399 529" fill="none" xmlns="http://www.w3.org/2000/svg">
<path d="M30.6103 59.2438C31.8625 46.4085 46.785 38.7647 54.0897 36.5472C58.9038 35.1522 69.6434 33.7452 74.0893 39.2777C79.6467 46.1932 92.0846 63.13 96.5834 68.1581C101.082 73.1862 106.904 82.1838 121.195 93.0339C132.627 101.714 137.073 110.412 137.867 113.676C146.423 132.38 166.289 173.174 177.298 186.715V0.253052H178.573C204.59 1.85406 223.101 26.9366 229.105 39.2777C231.106 44.2808 240.712 62.4923 263.126 95.3131C285.541 128.134 293.145 151.015 294.146 158.353C293.479 178.532 292.545 231.65 294.146 282.688C295.747 333.726 319.495 391.171 331.169 413.514L398.712 493.61V509.368C328.73 550.028 221.46 515.805 176.573 493.61C142.137 443.521 123.353 411.433 115.136 391.867C106.918 372.301 89.6999 298.341 88.5259 282.688C87.3519 267.035 90.0912 221.251 91.6565 203.641C93.2218 186.032 68.9599 147.682 63.4814 142.595C59.0986 138.525 49.6547 126.29 45.4805 120.681C40.002 105.55 29.3581 72.0792 30.6103 59.2438Z" fill="#E2C09B"/>
<g filter="url(#filter0_d_1721_662)">
<path d="M30.6103 59.2438C31.8625 46.4085 46.785 38.7647 54.0897 36.5473C58.9038 35.1522 69.6434 33.7453 74.0893 39.2777C79.6467 46.1933 92.0846 63.13 96.5834 68.1581C101.082 73.1862 106.904 82.1838 121.195 93.0339C132.627 101.714 137.073 110.412 137.867 113.676C146.423 132.38 166.289 173.174 177.298 186.715L176.573 493.61C142.137 443.521 123.353 411.433 115.136 391.867C106.918 372.301 89.6999 298.341 88.5259 282.688C87.3519 267.035 90.0912 221.251 91.6565 203.641C93.2218 186.032 68.9599 147.682 63.4814 142.595C59.0986 138.525 49.6547 126.29 45.4805 120.681C40.002 105.55 29.3581 72.0792 30.6103 59.2438Z" fill="#E2C09B"/>
</g>
<path d="M74.0892 39.2777C69.6433 33.7453 58.9037 35.1522 54.0896 36.5473C50.03 37.7796 43.6176 40.6879 38.5065 45.2319C36.7558 53.2998 35.4763 70.7219 44.3638 75.8674C53.2513 81.0128 64.9584 79.8304 69.701 78.596C76.7326 76.7137 91.1226 70.9802 92.4298 63.104C86.7568 55.9093 78.376 44.6122 74.0892 39.2777Z" fill="#E5CFB9"/>
<path d="M63.4813 142.595C59.0985 138.526 49.6546 126.29 45.4805 120.681C85.9836 148.329 74.251 139.406 86.0423 158.353C95.4753 173.51 101.764 204.607 103.729 218.26C102.132 230.297 99.0126 257.909 99.3074 272.058C99.6022 286.208 107.291 324.136 111.099 341.332C120.826 405.594 176.319 469.627 202.849 493.61C245.743 507.074 344.812 525.923 397.936 493.61V509.897C321.464 549.824 218.497 515.676 176.573 493.61C142.137 443.521 123.353 411.433 115.136 391.867C106.918 372.301 89.6998 298.341 88.5258 282.688C87.3519 267.035 90.0911 221.251 91.6564 203.641C93.2217 186.032 68.9598 147.682 63.4813 142.595Z" fill="#D3AD80"/>
<path d="M177.297 186.715C173.827 182.446 169.475 175.468 164.876 167.327C165.497 177.549 170.645 199.542 186.268 205.732C201.891 211.923 186.797 142.477 177.297 106.98V186.715Z" fill="#D3AD80"/>
<defs>
<filter id="filter0_d_1721_662" x="0.508789" y="35.2902" width="176.789" height="483.32" filterUnits="userSpaceOnUse" color-interpolation-filters="sRGB">
<feFlood flood-opacity="0" result="BackgroundImageFix"/>
<feColorMatrix in="SourceAlpha" type="matrix" values="0 0 0 0 0 0 0 0 0 0 0 0 0 0 0 0 0 0 127 0" result="hardAlpha"/>
<feOffset dx="-20" dy="15"/>
<feGaussianBlur stdDeviation="5"/>
<feComposite in2="hardAlpha" operator="out"/>
<feColorMatrix type="matrix" values="0 0 0 0 0 0 0 0 0 0 0 0 0 0 0 0 0 0 0.25 0"/>
<feBlend mode="normal" in2="BackgroundImageFix" result="effect1_dropShadow_1721_662"/>
<feBlend mode="normal" in="SourceGraphic" in2="effect1_dropShadow_1721_662" result="shape"/>
</filter>
</defs>
</svg>
