<svg width="1983" height="1158" viewBox="0 0 1983 1158" fill="none" xmlns="http://www.w3.org/2000/svg">
<g id="Tablet">
<g id="Tablet_2">
<g id="Screen">
<path id="Background" d="M61.8198 132.01V1038.34H1765.38L1951.65 804.492V374.011L1841.56 222.078L1697.34 132.01H61.8198Z" fill="url(#paint0_radial_1721_610)" fill-opacity="0.8"/>
<path id="Grid" d="M150.163 1034.77H195.201M147.286 1034.77V1006.87M885.164 1034.77V142.229M885.164 1034.77H839.046M885.164 1034.77H931.101M885.164 142.229H839.046M885.164 142.229H931.101M516.225 142.229V1034.77M516.225 142.229H470.467M516.225 142.229H562.342M516.225 1034.77H470.467M516.225 1034.77H562.342M1252.66 1034.77V142.229M1252.66 1034.77H1206.73M1252.66 1034.77H1298.6M1252.66 142.229H1206.73M1252.66 142.229H1298.6M1436.41 142.229V1034.77M1436.41 142.229H1390.48M1436.41 142.229H1482.35M1436.41 1034.77H1390.48M1436.41 1034.77H1482.35M1068.91 1034.77V142.229M1068.91 1034.77H1022.98M1068.91 1034.77H1114.85M1068.91 142.229H1022.98M1068.91 142.229H1114.85M700.694 142.229V1034.77M700.694 142.229H654.577M700.694 142.229H746.812M700.694 1034.77H654.577M700.694 1034.77H746.812M333.194 1034.77V142.229M333.194 1034.77H286.717M333.194 1034.77H378.952M333.194 142.229H286.717M333.194 142.229H378.952M240.24 142.229V1034.77M240.24 142.229H195.201M240.24 142.229H286.717M240.24 1034.77H195.201M240.24 1034.77H286.717M424.709 1034.77V142.229M424.709 1034.77H378.952M424.709 1034.77H470.467M424.709 142.229H378.952M424.709 142.229H470.467M608.46 142.229V1034.77M608.46 142.229H562.342M608.46 142.229H654.577M608.46 1034.77H562.342M608.46 1034.77H654.577M792.929 1034.77V142.229M792.929 1034.77H746.812M792.929 1034.77H839.046M792.929 142.229H746.812M792.929 142.229H839.046M977.039 142.229V1034.77M977.039 142.229H931.101M977.039 142.229H1022.98M977.039 1034.77H931.101M977.039 1034.77H1022.98M1160.79 1034.77V142.229M1160.79 1034.77H1114.85M1160.79 1034.77H1206.73M1160.79 142.229H1114.85M1160.79 142.229H1206.73M1344.54 142.229V1034.77M1344.54 142.229H1298.6M1344.54 142.229H1390.48M1344.54 1034.77H1298.6M1344.54 1034.77H1390.48M1528.29 1034.77V142.229M1528.29 1034.77H1482.35M1528.29 1034.77H1574.23M1528.29 142.229H1482.35M1528.29 142.229H1574.23M1901.14 588.498H147.286M1901.14 588.498V560.606M1901.14 588.498V616.389M147.286 588.498V560.606M147.286 588.498V616.389M147.286 365.363H1901.14M147.286 365.363V337.472M147.286 365.363V393.255M1901.14 365.363V337.472M1901.14 365.363V393.255M1901.14 811.632H147.286M1901.14 811.632V783.74M1901.14 811.632V839.524M147.286 811.632V783.74M147.286 811.632V839.524M147.286 700.065H1901.14M147.286 700.065V672.173M147.286 700.065V727.957M1901.14 700.065V672.173M1901.14 700.065V727.957M1901.14 923.199H147.286M1901.14 923.199V895.307M1901.14 923.199V951.091M147.286 923.199V895.307M147.286 923.199V951.091M147.286 476.931H1901.14M147.286 476.931V449.039M147.286 476.931V504.822M1901.14 476.931V449.039M1901.14 476.931V504.822M1901.14 253.796H147.286M1901.14 253.796V225.904M1901.14 253.796V281.688M147.286 253.796V225.904M147.286 253.796V281.688M147.286 198.013H1901.14V225.904M147.286 198.013V170.121V142.229H195.201M147.286 198.013V225.904M1901.14 309.58H147.286M1901.14 309.58V281.688M1901.14 309.58V337.472M147.286 309.58V281.688M147.286 309.58V337.472M147.286 421.147H1901.14M147.286 421.147V393.255M147.286 421.147V449.039M1901.14 421.147V393.255M1901.14 421.147V449.039M1901.14 532.714H147.286M1901.14 532.714V504.822M1901.14 532.714V560.606M147.286 532.714V504.822M147.286 532.714V560.606M147.286 644.281H1901.14M147.286 644.281V616.389M147.286 644.281V672.173M1901.14 644.281V616.389M1901.14 644.281V672.173M1901.14 755.848H147.286M1901.14 755.848V727.957M1901.14 755.848V783.74M147.286 755.848V727.957M147.286 755.848V783.74M147.286 867.415H1901.14M147.286 867.415V839.524M147.286 867.415V895.307M1901.14 867.415V839.524M1901.14 867.415V895.307M147.286 978.983H1901.14V951.091M147.286 978.983V951.091M147.286 978.983V1006.87M195.201 1034.77V142.229M286.717 142.229V1034.77M378.952 1034.77V142.229M470.467 142.229V1034.77M562.342 1034.77V142.229M654.577 142.229V1034.77M746.812 1034.77V142.229M839.046 142.229V1034.77M931.101 1034.77V142.229M1022.98 142.229V1034.77M1114.85 1034.77V142.229M1206.73 142.229V1034.77M1298.6 1034.77V142.229M1390.48 142.229V1034.77M1482.35 1034.77V142.229M1574.23 142.229V1034.77M1574.23 142.229H1615.09M1574.23 1034.77H1615.09M147.286 225.904H1901.14M1901.14 281.688H147.286M147.286 337.472H1901.14M1901.14 393.255H147.286M147.286 449.039H1901.14M1901.14 504.822H147.286M147.286 560.606H1901.14M1901.14 616.389H147.286M147.286 672.173H1901.14M1901.14 727.957H147.286M147.286 783.74H1901.14M1901.14 839.524H147.286M147.286 895.307H1901.14M1901.14 951.091H147.286M147.286 1006.87H1819.41V168.04M1737.68 1034.77V142.229M1737.68 1034.77H1696.82M1737.68 1034.77H1778.55V142.229H1737.68M1737.68 142.229H1696.82M1655.96 1034.77V142.229M1655.96 1034.77H1615.09M1655.96 1034.77H1696.82M1655.96 142.229H1615.09M1655.96 142.229H1696.82M1615.09 142.229V1034.77M1696.82 1034.77V142.229" stroke="white" stroke-opacity="0.1" stroke-width="1.04"/>
</g>
<g id="Left">
<path id="Left Shadow" d="M647.027 1053.77L96.1547 1056.53L79.0653 1046.3L21.0516 1011.6V127.593L47.4668 101.178H170.861L179.122 109.439V126.604H242.368L264.736 154.563H308.772L337.431 183.222H179.122V427.226L167.299 437.336V496.796L131.914 528.754L138.168 535.009L137.312 957.059L132.514 960.143L158.212 989.877H548.461L586.347 1030.49L629.85 1031.62L647.027 1053.77Z" fill="#303030"/>
<g id="Left_2" filter="url(#filter0_d_1721_610)">
<path d="M637.027 1053.77L86.1547 1056.53L69.0653 1046.3L11.0516 1011.6V127.593L37.4668 101.178H160.861L169.122 109.439V126.604H232.368L254.736 154.563H298.772L327.431 183.222H169.122V427.226L157.299 437.336V496.796L121.914 528.754L128.168 535.009L127.312 957.059L122.514 960.143L148.212 989.877H538.461L576.347 1030.49L619.85 1031.62L637.027 1053.77Z" fill="#404040"/>
<path d="M122.514 960.143L148.212 989.877H538.461L576.347 1030.49L619.85 1031.62L637.027 1053.77L86.1547 1056.53L69.0653 1046.3M122.514 960.143L127.312 957.059L128.168 535.009L121.914 528.754M122.514 960.143L98.8075 928.656L101.346 548.316L121.914 528.754M121.914 528.754L157.299 496.796V437.336M157.299 437.336L169.122 427.226V183.222M157.299 437.336L71.7243 513.972L69.0653 1046.3M69.0653 1046.3L11.0516 1011.6L11.0516 127.593L37.4668 101.178H160.861L169.122 109.439V126.604M169.122 126.604H232.368L254.736 154.563H298.772L327.431 183.222H169.122M169.122 126.604V183.222" stroke="black"/>
</g>
<g id="Button">
<g id="Background_2" filter="url(#filter1_d_1721_610)">
<path d="M169.074 256.114V195.477H60.3456V256.114H169.074Z" fill="#373737"/>
<path d="M169.074 256.114V195.477H60.3456V256.114H169.074Z" stroke="black"/>
</g>
<path id="Icon" d="M108.787 218.548H139.448V225.795V233.042H108.787V244.61L89.9719 225.795L108.787 206.98V218.548Z" fill="#17D8FF"/>
</g>
</g>
<g id="Right">
<path id="Right Shadow" d="M1349.83 151.805L1330.71 129.65L1816.61 129.65L1941.65 226.769V926.63L1813.27 1052.58H1734.66L1713.11 1024.66H1667.89L1649.08 999.772H1744.37L1770.78 967.298L1768.96 701.133L1879.13 570.022V398.547L1778.37 285.647V203.703L1768.35 190.653H1428.13L1391.41 151.805H1349.83Z" fill="#303030"/>
<g id="Right_2" filter="url(#filter2_d_1721_610)">
<path d="M1359.83 151.805L1340.71 129.65L1826.61 129.65L1951.65 226.769V926.63L1823.27 1052.58H1744.66L1723.11 1024.66H1677.89L1659.08 999.772H1754.37L1780.78 967.298L1778.96 701.133L1889.13 570.022V398.547L1788.37 285.647V203.703L1778.35 190.653H1438.13L1401.41 151.805H1359.83Z" fill="#404040"/>
<path d="M1359.83 151.805L1340.71 129.65L1826.61 129.65L1951.65 226.769V926.63L1823.27 1052.58H1744.66L1723.11 1024.66H1677.89L1659.08 999.772H1754.37L1780.78 967.298L1778.96 701.133L1889.13 570.022V398.547L1788.37 285.647V203.703L1778.35 190.653H1438.13L1401.41 151.805H1359.83Z" stroke="black"/>
</g>
<g id="Holes">
<circle id="Ellipse 52" cx="1849.43" cy="719.391" r="8.35957" stroke="black"/>
<circle id="Ellipse 92" cx="1849.43" cy="691.207" r="8.35957" stroke="black"/>
<circle id="Ellipse 56" cx="1849.43" cy="747.575" r="8.35957" stroke="black"/>
<circle id="Ellipse 60" cx="1849.43" cy="775.759" r="8.35957" stroke="black"/>
<circle id="Ellipse 64" cx="1849.43" cy="803.943" r="8.35957" stroke="black"/>
<circle id="Ellipse 68" cx="1849.43" cy="832.127" r="8.35957" stroke="black"/>
<circle id="Ellipse 72" cx="1849.43" cy="860.311" r="8.35957" stroke="black"/>
<circle id="Ellipse 76" cx="1849.43" cy="888.495" r="8.35957" stroke="black"/>
<circle id="Ellipse 80" cx="1849.43" cy="916.679" r="8.35957" stroke="black"/>
<circle id="Ellipse 84" cx="1849.43" cy="944.862" r="8.35957" stroke="black"/>
<circle id="Ellipse 53" cx="1881.64" cy="719.391" r="8.35957" stroke="black"/>
<circle id="Ellipse 93" cx="1881.64" cy="691.207" r="8.35957" stroke="black"/>
<circle id="Ellipse 97" cx="1881.64" cy="663.023" r="8.35957" stroke="black"/>
<circle id="Ellipse 57" cx="1881.64" cy="747.575" r="8.35957" stroke="black"/>
<circle id="Ellipse 61" cx="1881.64" cy="775.759" r="8.35957" stroke="black"/>
<circle id="Ellipse 65" cx="1881.64" cy="803.943" r="8.35957" stroke="black"/>
<circle id="Ellipse 69" cx="1881.64" cy="832.127" r="8.35957" stroke="black"/>
<circle id="Ellipse 73" cx="1881.64" cy="860.311" r="8.35957" stroke="black"/>
<circle id="Ellipse 77" cx="1881.64" cy="888.495" r="8.35957" stroke="black"/>
<circle id="Ellipse 81" cx="1881.64" cy="916.679" r="8.35957" stroke="black"/>
<circle id="Ellipse 54" cx="1911.84" cy="719.391" r="8.35957" stroke="black"/>
<circle id="Ellipse 94" cx="1911.84" cy="691.207" r="8.35957" stroke="black"/>
<circle id="Ellipse 98" cx="1911.84" cy="663.023" r="8.35957" stroke="black"/>
<circle id="Ellipse 102" cx="1911.84" cy="634.839" r="8.35957" stroke="black"/>
<circle id="Ellipse 58" cx="1911.84" cy="747.575" r="8.35957" stroke="black"/>
<circle id="Ellipse 62" cx="1911.84" cy="775.759" r="8.35957" stroke="black"/>
<circle id="Ellipse 66" cx="1911.84" cy="803.943" r="8.35957" stroke="black"/>
<circle id="Ellipse 70" cx="1911.84" cy="832.127" r="8.35957" stroke="black"/>
<circle id="Ellipse 74" cx="1911.84" cy="860.311" r="8.35957" stroke="black"/>
<circle id="Ellipse 78" cx="1911.84" cy="888.495" r="8.35957" stroke="black"/>
<circle id="Ellipse 55" cx="1819.23" cy="719.391" r="8.35957" stroke="black"/>
<circle id="Ellipse 59" cx="1819.23" cy="747.575" r="8.35957" stroke="black"/>
<circle id="Ellipse 63" cx="1819.23" cy="775.759" r="8.35957" stroke="black"/>
<circle id="Ellipse 67" cx="1819.23" cy="803.943" r="8.35957" stroke="black"/>
<circle id="Ellipse 71" cx="1819.23" cy="832.127" r="8.35957" stroke="black"/>
<circle id="Ellipse 75" cx="1819.23" cy="860.311" r="8.35957" stroke="black"/>
<circle id="Ellipse 79" cx="1819.23" cy="888.495" r="8.35957" stroke="black"/>
<circle id="Ellipse 83" cx="1819.23" cy="916.679" r="8.35957" stroke="black"/>
<circle id="Ellipse 87" cx="1819.23" cy="944.862" r="8.35957" stroke="black"/>
<circle id="Ellipse 91" cx="1819.23" cy="973.046" r="8.35957" stroke="black"/>
</g>
</g>
<g id="Bottom">
<path d="M1727.22 1031.51L1742.42 1051.42L636.093 1051.18L621.06 1031.51H1727.22Z" fill="#41413F"/>
<path d="M1662.27 1004.57L1670.18 1015L562.92 1014.81L553.609 1004.57H1662.27Z" fill="#41413F"/>
<path d="M1727.22 1031.51L1742.42 1051.42L636.093 1051.18L621.06 1031.51H1727.22Z" stroke="black"/>
<path d="M1662.27 1004.57L1670.18 1015L562.92 1014.81L553.609 1004.57H1662.27Z" stroke="black"/>
</g>
<g id="Top">
<path d="M253.75 151.923L237.436 132.01L1341.62 132.25L1358.37 151.923H253.75Z" fill="#41413F"/>
<path d="M323.613 178.862L313.182 168.431L1416.34 168.624L1425.52 178.862H323.613Z" fill="#41413F"/>
<path d="M253.75 151.923L237.436 132.01L1341.62 132.25L1358.37 151.923H253.75Z" stroke="black"/>
<path d="M323.613 178.862L313.182 168.431L1416.34 168.624L1425.52 178.862H323.613Z" stroke="black"/>
</g>
</g>
</g>
<defs>
<filter id="filter0_d_1721_610" x="0.551636" y="0.677856" width="827.492" height="1156.35" filterUnits="userSpaceOnUse" color-interpolation-filters="sRGB">
<feFlood flood-opacity="0" result="BackgroundImageFix"/>
<feColorMatrix in="SourceAlpha" type="matrix" values="0 0 0 0 0 0 0 0 0 0 0 0 0 0 0 0 0 0 127 0" result="hardAlpha"/>
<feOffset dx="90"/>
<feGaussianBlur stdDeviation="50"/>
<feComposite in2="hardAlpha" operator="out"/>
<feColorMatrix type="matrix" values="0 0 0 0 0.475833 0 0 0 0 0.850238 0 0 0 0 1 0 0 0 0.1 0"/>
<feBlend mode="normal" in2="BackgroundImageFix" result="effect1_dropShadow_1721_610"/>
<feBlend mode="normal" in="SourceGraphic" in2="effect1_dropShadow_1721_610" result="shape"/>
</filter>
<filter id="filter1_d_1721_610" x="59.8456" y="194.977" width="116.728" height="61.637" filterUnits="userSpaceOnUse" color-interpolation-filters="sRGB">
<feFlood flood-opacity="0" result="BackgroundImageFix"/>
<feColorMatrix in="SourceAlpha" type="matrix" values="0 0 0 0 0 0 0 0 0 0 0 0 0 0 0 0 0 0 127 0" result="hardAlpha"/>
<feOffset dx="7"/>
<feComposite in2="hardAlpha" operator="out"/>
<feColorMatrix type="matrix" values="0 0 0 0 0 0 0 0 0 0 0 0 0 0 0 0 0 0 0.25 0"/>
<feBlend mode="normal" in2="BackgroundImageFix" result="effect1_dropShadow_1721_610"/>
<feBlend mode="normal" in="SourceGraphic" in2="effect1_dropShadow_1721_610" result="shape"/>
</filter>
<filter id="filter2_d_1721_610" x="1169.62" y="29.1503" width="812.529" height="1123.93" filterUnits="userSpaceOnUse" color-interpolation-filters="sRGB">
<feFlood flood-opacity="0" result="BackgroundImageFix"/>
<feColorMatrix in="SourceAlpha" type="matrix" values="0 0 0 0 0 0 0 0 0 0 0 0 0 0 0 0 0 0 127 0" result="hardAlpha"/>
<feOffset dx="-70"/>
<feGaussianBlur stdDeviation="50"/>
<feComposite in2="hardAlpha" operator="out"/>
<feColorMatrix type="matrix" values="0 0 0 0 0.475833 0 0 0 0 0.850238 0 0 0 0 1 0 0 0 0.1 0"/>
<feBlend mode="normal" in2="BackgroundImageFix" result="effect1_dropShadow_1721_610"/>
<feBlend mode="normal" in="SourceGraphic" in2="effect1_dropShadow_1721_610" result="shape"/>
</filter>
<radialGradient id="paint0_radial_1721_610" cx="0" cy="0" r="1" gradientUnits="userSpaceOnUse" gradientTransform="translate(1006.73 585.173) rotate(90.1193) scale(453.163 684.393)">
<stop stop-color="#2C9DFF"/>
<stop offset="1" stop-color="#05345D"/>
</radialGradient>
</defs>
</svg>
